<svg xmlns="http://www.w3.org/2000/svg" viewBox="0 0 512 512" id="discount"><path fill="#2c2a2d" d="M53.5,248.5A7.5,7.5,0,1,0,61,256,7.5,7.5,0,0,0,53.5,248.5Zm405,0A7.5,7.5,0,1,0,466,256,7.5,7.5,0,0,0,458.5,248.5ZM431,229.75H398.81c-2.46,0-3.51,2.7-3.51,5.17,0,2.85,1.27,5.33,3.51,5.33H409.1V281c0,2.4,2.91,3.6,5.82,3.6s5.82-1.2,5.82-3.6V240.25H431c2.24,0,3.5-2.48,3.5-5.33C434.54,232.45,433.5,229.75,431,229.75Zm80.74,84.44L497.23,255.8l14.54-58a7.5,7.5,0,0,0-7.27-9.33H437.33a48.77,48.77,0,0,0-33.79-56.3,48.81,48.81,0,0,0-51.24-43,48.78,48.78,0,0,0-62.85-22.88,48.79,48.79,0,0,0-66.9,0A48.79,48.79,0,0,0,159.7,89.21a48.79,48.79,0,0,0-51.24,43,48.8,48.8,0,0,0-33.79,56.3H7.5a7.5,7.5,0,0,0-7.27,9.33l14.54,58L.22,314.19A7.5,7.5,0,0,0,7.5,323.5H74.67a48.77,48.77,0,0,0,33.79,56.3,48.81,48.81,0,0,0,51.24,43,48.78,48.78,0,0,0,62.85,22.88,48.79,48.79,0,0,0,66.9,0,48.79,48.79,0,0,0,62.85-22.88,48.79,48.79,0,0,0,51.24-43,48.8,48.8,0,0,0,33.79-56.3H504.5a7.5,7.5,0,0,0,7.28-9.31ZM93.25,162a33.74,33.74,0,0,1,23.64-16.43,7.49,7.49,0,0,0,6.24-7.44A33.78,33.78,0,0,1,163,104.69a7.51,7.51,0,0,0,8.41-4.86A33.8,33.8,0,0,1,220.39,82,7.5,7.5,0,0,0,230,80.32a33.78,33.78,0,0,1,52.08,0A7.49,7.49,0,0,0,291.61,82a33.8,33.8,0,0,1,48.95,17.82,7.5,7.5,0,0,0,8.41,4.86,33.79,33.79,0,0,1,39.9,33.47,7.49,7.49,0,0,0,6.24,7.44,33.78,33.78,0,0,1,26.78,42.9H381.25a142.27,142.27,0,0,0-250.49,0H90.11A33.62,33.62,0,0,1,93.25,162ZM363.91,188.5H148.1a127.28,127.28,0,0,1,215.81,0ZM418.75,350a33.74,33.74,0,0,1-23.64,16.43,7.49,7.49,0,0,0-6.24,7.44A33.78,33.78,0,0,1,349,407.31a7.5,7.5,0,0,0-8.41,4.86A33.8,33.8,0,0,1,291.61,430a7.5,7.5,0,0,0-9.57,1.69,33.78,33.78,0,0,1-52.08,0,7.5,7.5,0,0,0-9.57-1.69,33.8,33.8,0,0,1-48.95-17.82,7.5,7.5,0,0,0-8.41-4.86,33.79,33.79,0,0,1-39.9-33.47,7.49,7.49,0,0,0-6.24-7.44,33.78,33.78,0,0,1-26.78-42.9h40.65a142.27,142.27,0,0,0,250.49,0h40.64A33.62,33.62,0,0,1,418.75,350ZM148.1,323.5H363.91a127.27,127.27,0,0,1-215.81,0Zm-131-15,12.68-50.9a7.47,7.47,0,0,0,0-3.64L17.11,203.5H494.89L482.23,254a7.47,7.47,0,0,0,0,3.64l12.68,50.9Zm147.46-64.8c0-2.33,2.16-4.5,7.46-4.5,6.12,0,7.54,2.84,10.22,2.84,3.28,0,4.63-4.12,4.63-6.14,0-5.85-10.9-6.6-14.85-6.6-9.32,0-19.1,4.27-19.1,15.52,0,17.55,23.65,16,23.65,25.05,0,3.6-3.8,4.95-7.23,4.95-6.94,0-9.18-5.55-12.69-5.55-2.83,0-5.07,3.75-5.07,6.3,0,4.95,8.21,9.75,18,9.75,10.82,0,18.65-5.85,18.65-16.65C188.21,249.77,164.56,251.2,164.56,243.7Zm-67-13.95H84.37c-3.06,0-5.08,1.65-5.08,3.52V281c0,1.88,2,3.53,5.08,3.53h13.2c10.29,0,18.35-4.8,18.35-17.7V247.45C115.92,234.55,107.86,229.75,97.57,229.75Zm6.71,37.12c0,5.1-2.53,7.5-6.71,7.5H90.93V240h6.64c4.18,0,6.71,2.4,6.71,7.5Zm160.47-37.12c-10.29,0-18.28,4.8-18.28,17.7v19.87c0,12.9,8,17.7,18.28,17.7s18.35-4.8,18.35-17.7V247.45C283.1,234.55,275.05,229.75,264.75,229.75Zm6.71,37.57c0,5.17-2.53,7.5-6.71,7.5s-6.64-2.33-6.64-7.5V247.45c0-5.18,2.46-7.5,6.64-7.5s6.71,2.32,6.71,7.5ZM217.3,240c6.34,0,6.57,4.8,6.64,6.75.15,2.7,2.69,3.52,5.82,3.52,4,0,5.82-1.05,5.82-5.55,0-9.52-8.05-14.92-18.72-14.92-9.78,0-17.91,4.8-17.91,17.7v19.87c0,12.9,8.13,17.7,17.91,17.7,10.67,0,18.72-5.7,18.72-15.68,0-4.5-1.86-5.55-5.89-5.55-3,0-5.52.75-5.75,3.53s-.59,7.5-6.56,7.5c-4.33,0-6.79-2.4-6.79-7.5V247.45C210.59,242.35,213.05,240,217.3,240Zm162-10.2c-2.91,0-5.81,1.05-5.81,3.52v25.5L361.36,235.6c-2.83-5.48-4.4-5.85-8.58-5.85-2.91,0-5.82,1.12-5.82,3.6V281c0,2.4,2.91,3.6,5.82,3.6s5.82-1.2,5.82-3.6v-25.5l14.17,26c1.42,2.62,3.81,3.15,6.49,3.15,2.91,0,5.82-1.2,5.82-3.6v-47.7C385.08,230.8,382.17,229.75,379.26,229.75Zm-244.54,0c-2.91,0-5.82,1.05-5.82,3.52V281c0,2.4,2.91,3.6,5.82,3.6s5.82-1.2,5.82-3.6v-47.7C140.54,230.8,137.63,229.75,134.72,229.75Zm193,0c-3,0-5.81,1.05-5.81,3.52v34c0,5.1-2.69,7.5-7.17,7.5s-7.16-2.4-7.16-7.5v-34c0-2.47-3-3.52-5.82-3.52s-5.81,1.05-5.81,3.52v34c0,12.9,8.2,17.7,18.79,17.7s18.8-4.8,18.8-17.7v-34C333.53,230.8,330.55,229.75,327.71,229.75Z"></path></svg>