<svg xmlns="http://www.w3.org/2000/svg" viewBox="0 0 512 512" id="discount"><path fill="#2c2a2d" d="M67.26,423a7.5,7.5,0,1,0-7.5,7.5A7.5,7.5,0,0,0,67.26,423Zm356.2-84.22a30.47,30.47,0,0,0-18.69-6.47,29.84,29.84,0,0,0-7.65,1L296.46,359.74A30,30,0,0,0,293.58,347a29.43,29.43,0,0,0-18.23-15.65l-90.81-26.69a51.78,51.78,0,0,0-27.75-.39c-.19,0-.39.11-.58.18l-51.68,18.17a26.41,26.41,0,0,0-26-23H7.5a7.5,7.5,0,0,0,0,15h71A11.43,11.43,0,0,1,89.77,326.2V442.06a11.44,11.44,0,0,1-11.25,11.6H7.5a7.5,7.5,0,0,0,0,15h71a26.46,26.46,0,0,0,26.25-26.6v-.16l114.89,26,.31.06a150,150,0,0,0,105.71-19.9l96.23-59.3a4,4,0,0,0,.43-.28,31.17,31.17,0,0,0,1.12-49.73Zm-9.65,37.39-96,59.16a135,135,0,0,1-95,17.93l-118-26.7V338.39l56.12-19.73a36.79,36.79,0,0,1,19.42.36l90.81,26.69a14.19,14.19,0,0,1,8.9,7.67,15,15,0,0,1,.27,12.27,14.12,14.12,0,0,1-16.16,8.5l-64.5-14.55a7.5,7.5,0,1,0-3.3,14.64l64.53,14.55a28.94,28.94,0,0,0,30.46-12.19l109.62-28.84a15.48,15.48,0,0,1,13.26,2.78,16.18,16.18,0,0,1-.39,25.59ZM302.57,134.3a22.37,22.37,0,1,0-15.79,6.53A22.36,22.36,0,0,0,302.57,134.3Zm-21-10.61a7.33,7.33,0,1,1,10.37,0A7.34,7.34,0,0,1,281.59,123.69ZM454.42,127c-3.15-3-7.07-6.79-7.58-9.06-.57-2.5,1.39-7.76,3-12,2.8-7.52,6-16.06,2.28-23.73S439.6,71.58,431.9,69.07c-4.21-1.38-9.45-3.08-11-5s-2.05-7.46-2.45-11.91c-.74-8.05-1.57-17.17-8.28-22.54s-15.73-4.15-23.71-3.08c-4.43.58-9.95,1.32-12.2.23s-5-5.74-7.21-9.53c-4.18-7-8.91-14.92-17.4-16.85-8.23-1.87-15.78,3.1-22.45,7.5-3.79,2.49-8.51,5.61-11.13,5.61S308.76,10.39,305,7.89C298.31,3.5,290.76-1.48,282.53.4c-8.49,1.93-13.22,9.86-17.4,16.85-2.26,3.79-5.07,8.5-7.21,9.53s-7.77.35-12.2-.23c-8-1.07-17-2.27-23.71,3.08s-7.55,14.49-8.28,22.54c-.41,4.45-.91,10-2.45,11.91s-6.76,3.61-11,5c-7.71,2.51-16.44,5.35-20.19,13.15s-.52,16.2,2.29,23.72c1.57,4.23,3.53,9.49,3,12-.52,2.27-4.44,6-7.59,9.06-5.89,5.65-12.57,12.07-12.57,20.84s6.68,15.19,12.57,20.84c3.15,3,7.07,6.79,7.59,9.06.57,2.5-1.39,7.76-3,12-2.81,7.53-6,16.06-2.29,23.72s12.48,10.64,20.19,13.15c4.21,1.37,9.45,3.08,11,5s2,7.47,2.46,11.92c.73,8,1.57,17.17,8.27,22.54s15.74,4.14,23.72,3.08c4.43-.59,9.95-1.32,12.2-.23s4.95,5.74,7.21,9.53c4.18,7,8.91,14.92,17.4,16.85,8.23,1.88,15.78-3.1,22.44-7.5,3.8-2.5,8.52-5.61,11.13-5.61s7.34,3.11,11.13,5.61c5.68,3.74,12,7.9,18.82,7.9a16.28,16.28,0,0,0,3.63-.4c8.49-1.93,13.22-9.86,17.39-16.85,2.26-3.79,5.08-8.5,7.22-9.53s7.76-.36,12.2.23c8,1.07,17,2.27,23.71-3.08s7.54-14.49,8.28-22.54c.4-4.45.91-10,2.45-11.91s6.76-3.61,11-5c7.7-2.51,16.43-5.35,20.18-13.15s.52-16.19-2.28-23.72c-1.57-4.23-3.53-9.49-3-12,.51-2.27,4.43-6,7.58-9.06C460.32,163,467,156.6,467,147.83S460.32,132.64,454.42,127ZM444,157.85c-5.08,4.87-10.32,9.9-11.83,16.56-1.56,6.86,1,13.82,3.53,20.54,1.49,4,3.75,10.07,2.83,12s-7.2,4.05-11.32,5.39c-6.75,2.2-13.73,4.48-18.05,9.9s-5,12.79-5.66,19.89c-.39,4.31-1,10.82-2.71,12.2s-8.11.49-12.37-.07c-7.08-.95-14.4-1.92-20.7,1.12s-9.94,9.27-13.56,15.34c-2.24,3.75-5.62,9.41-7.85,9.92-2,.45-7.33-3.06-10.86-5.39-5.75-3.79-12.27-8.09-19.39-8.09s-13.63,4.3-19.38,8.09c-3.53,2.33-8.86,5.84-10.86,5.39-2.23-.51-5.61-6.17-7.85-9.92-3.63-6.07-7.38-12.34-13.56-15.34s-13.63-2.07-20.71-1.13c-4.25.57-10.68,1.42-12.36.07s-2.32-7.88-2.71-12.19c-.65-7.1-1.33-14.45-5.66-19.89s-11.3-7.7-18.06-9.9c-4.11-1.34-10.34-3.37-11.31-5.39s1.33-8,2.82-12c2.51-6.72,5.09-13.68,3.54-20.54-1.51-6.66-6.76-11.69-11.83-16.56-3.36-3.23-8-7.64-8-10s4.6-6.79,8-10c5.07-4.87,10.32-9.9,11.83-16.56,1.55-6.86-1-13.82-3.54-20.54-1.49-4-3.74-10.07-2.82-12s7.2-4,11.31-5.39c6.76-2.2,13.74-4.48,18.06-9.9s5-12.79,5.66-19.89c.39-4.31,1-10.82,2.71-12.2s8.11-.49,12.36.08c7.08.94,14.41,1.91,20.71-1.13S274.38,31,278,25c2.24-3.75,5.62-9.42,7.85-9.92,2-.45,7.32,3.06,10.86,5.39,5.75,3.79,12.27,8.09,19.38,8.09s13.64-4.3,19.39-8.09c3.53-2.33,8.87-5.85,10.86-5.39,2.23.5,5.61,6.17,7.85,9.92,3.62,6.07,7.37,12.34,13.56,15.34s13.62,2.07,20.7,1.13c4.26-.57,10.68-1.42,12.37-.08s2.32,7.89,2.71,12.2c.65,7.1,1.32,14.45,5.66,19.89s11.3,7.7,18.05,9.9c4.12,1.34,10.34,3.37,11.32,5.39s-1.33,8-2.83,12c-2.5,6.72-5.09,13.68-3.53,20.54,1.51,6.66,6.75,11.69,11.83,16.56,3.36,3.23,8,7.64,8,10S447.4,154.62,444,157.85Zm-90.83-46.46a7.5,7.5,0,0,0-10.61,0l-62.94,62.94a7.5,7.5,0,1,0,10.61,10.6L353.21,122A7.5,7.5,0,0,0,353.21,111.39ZM316.1,49.56a98.27,98.27,0,1,0,98.27,98.27A98.38,98.38,0,0,0,316.1,49.56Zm0,181.54a83.27,83.27,0,1,1,83.27-83.27A83.36,83.36,0,0,1,316.1,231.1Zm13.53-69.74a22.34,22.34,0,1,0,31.59,0A22.23,22.23,0,0,0,329.63,161.36Zm21,21a7.34,7.34,0,1,1,0-10.37A7.34,7.34,0,0,1,350.61,182.34Z"></path></svg>