<svg xmlns="http://www.w3.org/2000/svg" viewBox="0 0 512 512" id="medicine"><path d="M462.747 128.858A23.175 23.175 0 0 1 443 106.043v-9.055h2.5A22.483 22.483 0 0 0 461 58.202V22.488a22.526 22.526 0 0 0-22.5-22.5h-95a22.526 22.526 0 0 0-22.5 22.5v35.714a22.484 22.484 0 0 0 15.5 38.786h2.5v9.055a23.176 23.176 0 0 1-19.747 22.815A57.067 57.067 0 0 0 291 141.451v-31.963a47.554 47.554 0 0 0-47.5-47.5h-196a47.554 47.554 0 0 0-47.5 47.5v355a47.554 47.554 0 0 0 47.5 47.5h196a47.684 47.684 0 0 0 39.497-21.136 57.408 57.408 0 0 0 44.503 21.136h126.886q.786.024 1.567.024c30.053-.002 55.03-25.34 56.043-57.285.003-.08.004-.16.004-.239V185.764a57.803 57.803 0 0 0-49.253-56.906ZM276 160.361a56.917 56.917 0 0 0-6 25.403v268.724a57.175 57.175 0 0 0 4.041 21.134 32.613 32.613 0 0 1-30.541 21.366h-196a32.537 32.537 0 0 1-32.5-32.5v-355a32.537 32.537 0 0 1 32.5-32.5h196a32.537 32.537 0 0 1 32.5 32.5ZM431 14.988h7.5a7.508 7.508 0 0 1 7.5 7.5v29.513c-.167-.004-.332-.013-.5-.013H431Zm-32.5 0H416v37h-17.5Zm-32.5 0h17.5v37H366Zm-30 7.5a7.508 7.508 0 0 1 7.5-7.5h7.5v37h-14.5c-.168 0-.333.01-.5.013Zm.5 59.5a7.5 7.5 0 0 1 0-15h109a7.5 7.5 0 0 1 0 15ZM497 454.365c-.812 23.788-19.085 42.648-41.05 42.646-.403 0-.81-.006-1.214-.019a6.357 6.357 0 0 0-.236-.004h-127a42.548 42.548 0 0 1-42.5-42.5v-45.5h212Zm0-60.377H285v-166h212Zm0-181H285v-27.224a42.723 42.723 0 0 1 36.404-42.06A38.257 38.257 0 0 0 354 106.043v-9.055h74v9.055a38.257 38.257 0 0 0 32.597 37.661A42.723 42.723 0 0 1 497 185.764Zm-410-105.5a37.5 37.5 0 1 0 37.5 37.5 37.542 37.542 0 0 0-37.5-37.5Zm0 60a22.495 22.495 0 0 1-20.301-32.194l29.995 29.996A22.363 22.363 0 0 1 87 167.488Zm20.301-12.805-29.995-29.996a22.495 22.495 0 0 1 29.995 29.996ZM87 201.488a37.5 37.5 0 1 0 37.5 37.5 37.542 37.542 0 0 0-37.5-37.5Zm0 60a22.495 22.495 0 0 1-20.301-32.194l29.995 29.996A22.363 22.363 0 0 1 87 261.488Zm20.301-12.805-29.995-29.996a22.495 22.495 0 0 1 29.995 29.996ZM87 295.488a37.5 37.5 0 1 0 37.5 37.5 37.542 37.542 0 0 0-37.5-37.5Zm0 60a22.495 22.495 0 0 1-20.301-32.194l29.995 29.996A22.363 22.363 0 0 1 87 355.488Zm20.301-12.805-29.995-29.996a22.495 22.495 0 0 1 29.995 29.996ZM87 389.488a37.5 37.5 0 1 0 37.5 37.5 37.542 37.542 0 0 0-37.5-37.5Zm0 60a22.495 22.495 0 0 1-20.301-32.194l29.995 29.996A22.363 22.363 0 0 1 87 449.488Zm20.301-12.805-29.995-29.996a22.495 22.495 0 0 1 29.995 29.996ZM204 107.488a37.5 37.5 0 1 0 37.5 37.5 37.542 37.542 0 0 0-37.5-37.5Zm0 60a22.495 22.495 0 0 1-20.301-32.194l29.995 29.996a22.362 22.362 0 0 1-9.694 2.198Zm20.301-12.805-29.995-29.996a22.495 22.495 0 0 1 29.995 29.996ZM204 201.488a37.5 37.5 0 1 0 37.5 37.5 37.542 37.542 0 0 0-37.5-37.5Zm0 60a22.495 22.495 0 0 1-20.301-32.194l29.995 29.996a22.362 22.362 0 0 1-9.694 2.198Zm20.301-12.805-29.995-29.996a22.495 22.495 0 0 1 29.995 29.996ZM204 295.488a37.5 37.5 0 1 0 37.5 37.5 37.542 37.542 0 0 0-37.5-37.5Zm0 60a22.495 22.495 0 0 1-20.301-32.194l29.995 29.996a22.362 22.362 0 0 1-9.694 2.198Zm20.301-12.805-29.995-29.996a22.495 22.495 0 0 1 29.995 29.996ZM204 389.488a37.5 37.5 0 1 0 37.5 37.5 37.542 37.542 0 0 0-37.5-37.5Zm0 60a22.495 22.495 0 0 1-20.301-32.194l29.995 29.996a22.362 22.362 0 0 1-9.694 2.198Zm20.301-12.805-29.995-29.996a22.495 22.495 0 0 1 29.995 29.996Z"></path></svg>