<svg xmlns="http://www.w3.org/2000/svg" width="48" height="48" id="medicine"><path d="M24 0A24 24 0 0 0 0 24a24 24 0 0 0 24 24 24 24 0 0 0 24-24A24 24 0 0 0 24 0zm3.31 15.498h6.38c1.299 0 2.31 1.15 2.31 2.5s-1.011 2.5-2.31 2.5h-6.38c-1.299 0-2.31-1.15-2.31-2.5s1.011-2.5 2.31-2.5zm0 1c-.706 0-1.31.635-1.31 1.5s.604 1.5 1.31 1.5H30v-3h-2.69zm3.69 0v3h2.69c.706 0 1.31-.635 1.31-1.5s-.604-1.5-1.31-1.5H31zM9.504 18.75v.004h5.471a.5.5 0 0 1 .5.5v.84h4.695c1.42 0 2.71.562 3.642 1.474a5.09 5.09 0 0 1 .887 1.164c.018.032.04.08.059.114h4.44c1.127 0 2.058.913 2.058 2.037 0 .07-.015.134-.022.201l5.332-2.473a.5.5 0 0 1 .05-.021s.385-.134.857-.065c.471.07 1.074.402 1.38 1.127.36.853.015 1.846-.792 2.303l-.237.135a.5.5 0 0 1-.008 0l-9.671 5.256c-.95.637-2.204.801-3.291.525a.5.5 0 0 1-.04-.01l-9.34-3.164v.737a.5.5 0 0 1-.5.5H9.505a.5.5 0 0 1-.5-.5V19.25a.5.5 0 0 1 .5-.5zm.5 1v9.184h4.471V19.75h-4.471zm5.47 1.34v6.55L25.1 30.9h.002c.8.203 1.825.057 2.484-.386a.5.5 0 0 1 .041-.026l9.707-5.277.234-.13a.817.817 0 0 0 .366-1.044c-.185-.437-.391-.496-.606-.527-.21-.031-.374.023-.383.023l-6.978 3.237a.5.5 0 0 1-.172.043c-.19.058-.389.1-.598.1h-6.955v-1h6.955c.148 0 .287-.031.412-.081h.006c.382-.155.64-.519.64-.953 0-.58-.459-1.037-1.058-1.037h-5.07l-.129-.303c-.042-.098-.095-.184-.174-.326a4.022 4.022 0 0 0-.713-.934 4.181 4.181 0 0 0-2.941-1.19h-4.695z"></path></svg>