<svg xmlns="http://www.w3.org/2000/svg" viewBox="0 0 512 512" id="medicine"><path fill="#f2f2f2" d="M287.5 166.23V474.5a29.998 29.998 0 0 1-30 30h-220a29.998 29.998 0 0 1-30-30V166.23a30.004 30.004 0 0 1 30-30h220a30.004 30.004 0 0 1 30 30Z"></path><path fill="#ffe966" d="M177.574 441.592c0-9.89-1.983-7.908 7.908-7.908l19.555-10h19.555a17.908 17.908 0 0 1 17.908 17.908 17.908 17.908 0 0 1-17.908 17.908h-19.555l-19.555-10c-9.89 0-7.908 1.982-7.908-7.908Z"></path><path fill="#66c1ff" d="M185.482 423.684a17.908 17.908 0 0 0-17.909 17.908 17.908 17.908 0 0 0 17.909 17.908h19.555v-35.816Z"></path><path fill="#ffe966" d="M177.574 360.776c0-9.89-1.983-7.909 7.908-7.909l19.555-10h19.555a17.908 17.908 0 0 1 17.908 17.909 17.908 17.908 0 0 1-17.908 17.908h-19.555l-19.555-10c-9.89 0-7.908 1.982-7.908-7.908Z"></path><path fill="#66c1ff" d="M185.482 342.867a17.908 17.908 0 0 0-17.909 17.908 17.908 17.908 0 0 0 17.909 17.909h19.555v-35.817Z"></path><path fill="#ffe966" d="M177.574 279.96c0-9.891-1.983-7.909 7.908-7.909l19.555-10h19.555A17.908 17.908 0 0 1 242.5 279.96a17.908 17.908 0 0 1-17.908 17.908h-19.555l-19.555-10c-9.89 0-7.908 1.983-7.908-7.908Z"></path><path fill="#66c1ff" d="M185.482 262.051a17.908 17.908 0 0 0-17.909 17.908 17.908 17.908 0 0 0 17.909 17.908h19.555v-35.816Z"></path><path fill="#ffe966" d="M177.574 199.143c0-9.89-1.983-7.908 7.908-7.908l19.555-10h19.555a17.908 17.908 0 0 1 17.908 17.908 17.908 17.908 0 0 1-17.908 17.908h-19.555l-19.555-10c-9.89 0-7.908 1.982-7.908-7.908Z"></path><path fill="#66c1ff" d="M185.482 181.235a17.908 17.908 0 0 0-17.909 17.908 17.908 17.908 0 0 0 17.909 17.908h19.555v-35.816Z"></path><path fill="#fff099" d="M72.5 360.776c0-9.89-1.982-7.909 7.908-7.909l19.555-10h19.555a17.908 17.908 0 0 1 17.908 17.909 17.908 17.908 0 0 1-17.908 17.908H99.963l-19.555-10c-9.89 0-7.908 1.982-7.908-7.908Z"></path><path fill="#ffe966" d="M62.5 360.776c0-9.89-1.982-7.909 7.908-7.909l19.555-10h19.555a17.908 17.908 0 0 1 17.908 17.909 17.908 17.908 0 0 1-17.908 17.908H89.963l-19.555-10c-9.89 0-7.908 1.982-7.908-7.908Z"></path><path fill="#66c1ff" d="M70.408 342.867A17.908 17.908 0 0 0 52.5 360.776a17.908 17.908 0 0 0 17.908 17.908h19.555v-35.817Z"></path><path fill="#fff099" d="M72.5 441.52c0-9.89-1.982-7.907 7.908-7.907l19.555-10h19.555a17.908 17.908 0 0 1 17.908 17.908 17.908 17.908 0 0 1-17.908 17.908H99.963l-19.555-10c-9.89 0-7.908 1.982-7.908-7.908Z"></path><path fill="#ffe966" d="M62.5 441.52c0-9.89-1.982-7.907 7.908-7.907l19.555-10h19.555a17.908 17.908 0 0 1 17.908 17.908 17.908 17.908 0 0 1-17.908 17.908H89.963l-19.555-10c-9.89 0-7.908 1.982-7.908-7.908Z"></path><path fill="#66c1ff" d="M70.408 423.613A17.908 17.908 0 0 0 52.5 441.52a17.908 17.908 0 0 0 17.908 17.908h19.555v-35.816Z"></path><path fill="#fff099" d="M72.5 279.96c0-9.891-1.982-7.909 7.908-7.909l19.555-10h19.555a17.908 17.908 0 0 1 17.908 17.908 17.908 17.908 0 0 1-17.908 17.908H99.963l-19.555-10c-9.89 0-7.908 1.983-7.908-7.908Z"></path><path fill="#ffe966" d="M62.5 279.96c0-9.891-1.982-7.909 7.908-7.909l19.555-10h19.555a17.908 17.908 0 0 1 17.908 17.908 17.908 17.908 0 0 1-17.908 17.908H89.963l-19.555-10c-9.89 0-7.908 1.983-7.908-7.908Z"></path><path fill="#66c1ff" d="M70.408 262.051A17.908 17.908 0 0 0 52.5 279.96a17.908 17.908 0 0 0 17.908 17.908h19.555v-35.816Z"></path><path fill="#fff099" d="M72.5 199.143c0-9.89-1.982-7.908 7.908-7.908l19.555-10h19.555a17.908 17.908 0 0 1 17.908 17.908 17.908 17.908 0 0 1-17.908 17.908H99.963l-19.555-10c-9.89 0-7.908 1.982-7.908-7.908Z"></path><path fill="#ffe966" d="M62.5 199.143c0-9.89-1.982-7.908 7.908-7.908l19.555-10h19.555a17.908 17.908 0 0 1 17.908 17.908 17.908 17.908 0 0 1-17.908 17.908H89.963l-19.555-10c-9.89 0-7.908 1.982-7.908-7.908Z"></path><path fill="#66c1ff" d="M70.408 181.235A17.908 17.908 0 0 0 52.5 199.143a17.908 17.908 0 0 0 17.908 17.908h19.555v-35.816Z"></path><path fill="#dedede" d="M287.5 166.23V474.5a29.998 29.998 0 0 1-30 30h-8a29.998 29.998 0 0 1-30-30V136.23h38a30.004 30.004 0 0 1 30 30Z"></path><path fill="#ffe236" d="M224.592 181.235H219.5v35.816h5.092a17.908 17.908 0 0 0 17.908-17.908 17.908 17.908 0 0 0-17.908-17.908Z"></path><path fill="#ffe236" d="M224.592 181.235H219.5v35.816h5.092a17.908 17.908 0 0 0 17.908-17.908 17.908 17.908 0 0 0-17.908-17.908zm0 80.816H219.5v35.816h5.092A17.908 17.908 0 0 0 242.5 279.96a17.908 17.908 0 0 0-17.908-17.908zm0 80.816H219.5v35.817h5.092a17.908 17.908 0 0 0 17.908-17.908 17.908 17.908 0 0 0-17.908-17.909zm0 80.746H219.5v35.816h5.092a17.908 17.908 0 0 0 17.908-17.908 17.908 17.908 0 0 0-17.908-17.908z"></path><rect width="265" height="398.265" x="239.5" y="106.235" fill="#f2f2f2" rx="30"></rect><circle cx="437" cy="183.735" r="32.5" fill="#dedede"></circle><circle cx="327" cy="183.735" r="32.5" fill="#dedede"></circle><circle cx="427" cy="183.735" r="32.5" fill="#f66"></circle><circle cx="317" cy="183.735" r="32.5" fill="#f66"></circle><circle cx="437" cy="427" r="32.5" fill="#dedede"></circle><circle cx="327" cy="427" r="32.5" fill="#dedede"></circle><circle cx="427" cy="427" r="32.5" fill="#f66"></circle><circle cx="317" cy="427" r="32.5" fill="#f66"></circle><circle cx="327" cy="305.367" r="32.5" fill="#dedede"></circle><circle cx="437" cy="305.367" r="32.5" fill="#dedede"></circle><circle cx="317" cy="305.367" r="32.5" fill="#f66"></circle><circle cx="427" cy="305.367" r="32.5" fill="#f66"></circle><path fill="#313440" d="M109.519 335.367h-39.11a25.408 25.408 0 0 0 0 50.817h39.11a25.408 25.408 0 1 0 0-50.817Zm-27.056 35.817H70.408a10.408 10.408 0 0 1 0-20.817h12.055Zm27.056 0H97.463v-20.817h12.056a10.408 10.408 0 1 1 0 20.817Zm0 45h-39.11a25.408 25.408 0 0 0 0 50.816h39.11a25.408 25.408 0 1 0 0-50.816ZM82.463 452H70.408a10.408 10.408 0 0 1 0-20.816h12.055Zm27.056 0H97.463v-20.816h12.056a10.408 10.408 0 1 1 0 20.816Zm345.766-296.55a7.603 7.603 0 0 0-.537-.485 39.97 39.97 0 0 0-56.521 56.514c.153.186.314.366.488.54.173.173.354.335.539.487a39.97 39.97 0 0 0 56.52-56.515 7.55 7.55 0 0 0-.489-.54ZM402 183.736a24.983 24.983 0 0 1 36.553-22.16l-33.713 33.712a24.839 24.839 0 0 1-2.84-11.552Zm25 25a24.838 24.838 0 0 1-11.553-2.84l33.713-33.713A24.983 24.983 0 0 1 427 208.735Zm47.5-110h-205a37.563 37.563 0 0 0-36.745 30H37.5a37.542 37.542 0 0 0-37.5 37.5V474.5A37.542 37.542 0 0 0 37.5 512h220a7.462 7.462 0 0 0 3.648-.95 37.451 37.451 0 0 0 8.352.95h205a37.542 37.542 0 0 0 37.5-37.5V136.235a37.542 37.542 0 0 0-37.5-37.5ZM37.5 497A22.526 22.526 0 0 1 15 474.5V166.235a22.526 22.526 0 0 1 22.5-22.5H232v30h-46.519a25.408 25.408 0 1 0 0 50.816H232v30h-46.519a25.408 25.408 0 1 0 0 50.816H232v30h-46.519a25.408 25.408 0 1 0 0 50.817H232v30h-46.519a25.408 25.408 0 1 0 0 50.816H232v7.5a37.302 37.302 0 0 0 7.52 22.5ZM232 188.735v20.816h-19.463v-20.816Zm-34.463 0v20.816h-12.056a10.408 10.408 0 1 1 0-20.816ZM232 269.55v20.816h-19.463v-20.816Zm-34.463 0v20.816h-12.056a10.408 10.408 0 1 1 0-20.816ZM232 350.367v20.817h-19.463v-20.817Zm-34.463 0v20.817h-12.056a10.408 10.408 0 1 1 0-20.817ZM232 431.184V452h-19.463v-20.816Zm-34.463 0V452h-12.056a10.408 10.408 0 1 1 0-20.816ZM497 474.5a22.526 22.526 0 0 1-22.5 22.5h-205a22.526 22.526 0 0 1-22.5-22.5V136.235a22.526 22.526 0 0 1 22.5-22.5h205a22.526 22.526 0 0 1 22.5 22.5Zm-151.715-75.785a7.56 7.56 0 0 0-.555-.502 39.97 39.97 0 0 0-56.52 56.513 7.528 7.528 0 0 0 .505.56c.178.178.364.344.555.5a39.97 39.97 0 0 0 56.52-56.512 7.528 7.528 0 0 0-.505-.56ZM292 427a24.983 24.983 0 0 1 36.552-22.16l-33.712 33.712A24.839 24.839 0 0 1 292 427Zm25 25a24.839 24.839 0 0 1-11.552-2.84l33.712-33.712A24.983 24.983 0 0 1 317 452Zm28.285-296.55a7.621 7.621 0 0 0-.54-.488 39.97 39.97 0 0 0-56.518 56.517c.153.186.314.366.488.54.173.173.354.335.539.487a39.97 39.97 0 0 0 56.52-56.515 7.56 7.56 0 0 0-.489-.54ZM292 183.736a24.983 24.983 0 0 1 36.553-22.16l-33.713 33.712a24.839 24.839 0 0 1-2.84-11.552Zm25 25a24.838 24.838 0 0 1-11.553-2.84l33.713-33.713A24.983 24.983 0 0 1 317 208.735Zm28.285 68.348a7.546 7.546 0 0 0-.535-.484 39.97 39.97 0 0 0-56.54 56.494 7.525 7.525 0 0 0 .505.56q.268.267.556.502a39.97 39.97 0 0 0 56.502-56.532 7.627 7.627 0 0 0-.488-.54ZM292 305.367a24.983 24.983 0 0 1 36.553-22.16L294.84 316.92a24.839 24.839 0 0 1-2.84-11.553Zm25 25a24.837 24.837 0 0 1-11.552-2.84l33.712-33.712A24.983 24.983 0 0 1 317 330.367Zm-207.481-75.816h-39.11a25.408 25.408 0 0 0 0 50.816h39.11a25.408 25.408 0 1 0 0-50.816Zm-27.056 35.816H70.408a10.408 10.408 0 0 1 0-20.816h12.055Zm27.056 0H97.463v-20.816h12.056a10.408 10.408 0 1 1 0 20.816Zm345.766 108.348a7.56 7.56 0 0 0-.555-.502 39.97 39.97 0 0 0-56.52 56.513 7.528 7.528 0 0 0 .505.56c.178.178.364.344.555.5a39.97 39.97 0 0 0 56.52-56.512 7.528 7.528 0 0 0-.505-.56ZM402 427a24.983 24.983 0 0 1 36.552-22.16l-33.712 33.712A24.839 24.839 0 0 1 402 427Zm25 25a24.839 24.839 0 0 1-11.552-2.84l33.712-33.712A24.983 24.983 0 0 1 427 452ZM109.519 173.735h-39.11a25.408 25.408 0 0 0 0 50.816h39.11a25.408 25.408 0 1 0 0-50.816ZM82.463 209.55H70.408a10.408 10.408 0 0 1 0-20.816h12.055Zm27.056 0H97.463v-20.816h12.056a10.408 10.408 0 1 1 0 20.816Zm345.766 67.532a7.555 7.555 0 0 0-.533-.481 39.97 39.97 0 0 0-56.542 56.491 7.525 7.525 0 0 0 .505.56q.268.267.556.502a39.97 39.97 0 0 0 56.502-56.532 7.635 7.635 0 0 0-.488-.54ZM402 305.367a24.983 24.983 0 0 1 36.553-22.16L404.84 316.92a24.839 24.839 0 0 1-2.84-11.553Zm25 25a24.837 24.837 0 0 1-11.552-2.84l33.712-33.712A24.983 24.983 0 0 1 427 330.367Z"></path></svg>