<svg xmlns="http://www.w3.org/2000/svg" xmlns:xlink="http://www.w3.org/1999/xlink" width="48" height="48" id="medicine"><defs><linearGradient id="b" x1="868.253" x2="937.656" y1="521.354" y2="588.736" gradientTransform="translate(-1326.968 211.343) scale(1.53785)" gradientUnits="userSpaceOnUse" xlink:href="#a"></linearGradient><linearGradient id="a"><stop offset="0" stop-color="#24f3d2"></stop><stop offset=".394" stop-color="#0674f0"></stop><stop offset=".507" stop-color="#6961b5"></stop><stop offset=".813" stop-color="#f34660"></stop><stop offset="1" stop-color="#ee078d"></stop></linearGradient></defs><g transform="translate(0 -1004.362)"><rect width="48" height="48" y="1004.362" fill="url(#b)" rx="10.144" ry="10.144"></rect><path style="line-height:normal;text-indent:0;text-align:start;text-decoration-line:none;text-decoration-style:solid;text-decoration-color:#000;text-transform:none;block-progression:tb;isolation:auto;mix-blend-mode:normal" fill="#fff" d="M27.31 1019.86c-1.298 0-2.31 1.15-2.31 2.5 0 1.351 1.012 2.5 2.31 2.5h6.38c1.299 0 2.31-1.149 2.31-2.5 0-1.35-1.011-2.5-2.31-2.5h-6.38zm0 1H30v3h-2.69c-.705 0-1.31-.635-1.31-1.5s.605-1.5 1.31-1.5zm3.69 0h2.69c.706 0 1.31.635 1.31 1.5s-.604 1.5-1.31 1.5H31v-3zm-21.496 2.252a.5.5 0 0 0-.5.5v10.184a.5.5 0 0 0 .5.5h5.471a.5.5 0 0 0 .5-.5v-.737l9.34 3.164a.5.5 0 0 0 .039.01c1.087.276 2.342.113 3.29-.525l9.673-5.256a.5.5 0 0 0 .007 0l.237-.135a1.835 1.835 0 0 0 .793-2.302c-.307-.726-.91-1.059-1.381-1.127-.471-.07-.858.064-.858.064a.5.5 0 0 0-.048.022l-5.332 2.472c.006-.067.021-.132.021-.2 0-1.124-.93-2.038-2.059-2.038h-4.439c-.02-.034-.041-.082-.059-.113a5.014 5.014 0 0 0-.886-1.164 5.193 5.193 0 0 0-3.643-1.475h-4.695v-.84a.5.5 0 0 0-.5-.5H9.504zm.5 1h4.471v9.184h-4.471v-9.184zm5.47 1.34h4.696a4.181 4.181 0 0 1 3.447 1.789c.075.108.144.22.207.334.079.142.132.228.174.326l.13.303h5.069c.6 0 1.06.458 1.06 1.037 0 .434-.26.798-.642.953h-.005c-.126.05-.265.08-.413.08h-6.955v1h6.955c.21 0 .407-.042.598-.1a.5.5 0 0 0 .172-.043l6.978-3.236c.009 0 .174-.054.383-.023.215.03.421.09.606.527a.817.817 0 0 1-.365 1.043l-.235.13-9.707 5.278a.5.5 0 0 0-.04.025c-.66.443-1.684.59-2.485.387H25.1l-9.625-3.26v-6.553z" color="#000" font-family="sans-serif" font-weight="400" overflow="visible"></path></g></svg>