<svg xmlns="http://www.w3.org/2000/svg" viewBox="0 0 512 512" id="medicine"><path fill="#f2f2f2" d="M287.5 166.23V474.5a29.998 29.998 0 0 1-30 30h-220a29.998 29.998 0 0 1-30-30V166.23a30.004 30.004 0 0 1 30-30h220a30.004 30.004 0 0 1 30 30Z"></path><path fill="#ffe966" d="M177.574 441.592c0-9.89-1.983-7.908 7.908-7.908l19.555-10h19.555a17.908 17.908 0 0 1 17.908 17.908 17.908 17.908 0 0 1-17.908 17.908h-19.555l-19.555-10c-9.89 0-7.908 1.982-7.908-7.908Z"></path><path fill="#66c1ff" d="M185.482 423.684a17.908 17.908 0 0 0-17.908 17.908 17.908 17.908 0 0 0 17.908 17.908h19.555v-35.816Z"></path><path fill="#ffe966" d="M177.574 360.776c0-9.89-1.983-7.909 7.908-7.909l19.555-10h19.555a17.908 17.908 0 0 1 17.908 17.909 17.908 17.908 0 0 1-17.908 17.908h-19.555l-19.555-10c-9.89 0-7.908 1.982-7.908-7.908Z"></path><path fill="#66c1ff" d="M185.482 342.867a17.908 17.908 0 0 0-17.908 17.908 17.908 17.908 0 0 0 17.908 17.909h19.555v-35.817Z"></path><path fill="#ffe966" d="M177.574 279.96c0-9.891-1.983-7.909 7.908-7.909l19.555-10h19.555A17.908 17.908 0 0 1 242.5 279.96a17.908 17.908 0 0 1-17.908 17.908h-19.555l-19.555-10c-9.89 0-7.908 1.983-7.908-7.908Z"></path><path fill="#66c1ff" d="M185.482 262.051a17.908 17.908 0 0 0-17.908 17.908 17.908 17.908 0 0 0 17.908 17.908h19.555v-35.816Z"></path><path fill="#ffe966" d="M177.574 199.143c0-9.89-1.983-7.908 7.908-7.908l19.555-10h19.555a17.908 17.908 0 0 1 17.908 17.908 17.908 17.908 0 0 1-17.908 17.908h-19.555l-19.555-10c-9.89 0-7.908 1.982-7.908-7.908Z"></path><path fill="#66c1ff" d="M185.482 181.235a17.908 17.908 0 0 0-17.908 17.908 17.908 17.908 0 0 0 17.908 17.908h19.555v-35.816Z"></path><path fill="#fff099" d="M72.5 360.776c0-9.89-1.982-7.909 7.908-7.909l19.556-10h19.555a17.908 17.908 0 0 1 17.908 17.909 17.908 17.908 0 0 1-17.908 17.908H99.964l-19.556-10c-9.89 0-7.908 1.982-7.908-7.908Z"></path><path fill="#ffe966" d="M62.5 360.776c0-9.89-1.982-7.909 7.908-7.909l19.556-10h19.555a17.908 17.908 0 0 1 17.908 17.909 17.908 17.908 0 0 1-17.908 17.908H89.964l-19.556-10c-9.89 0-7.908 1.982-7.908-7.908Z"></path><path fill="#66c1ff" d="M70.408 342.867A17.908 17.908 0 0 0 52.5 360.776a17.908 17.908 0 0 0 17.908 17.908h19.556v-35.817Z"></path><path fill="#fff099" d="M72.5 441.52c0-9.89-1.982-7.907 7.908-7.907l19.556-10h19.555a17.908 17.908 0 0 1 17.908 17.908 17.908 17.908 0 0 1-17.908 17.908H99.964l-19.556-10c-9.89 0-7.908 1.982-7.908-7.908Z"></path><path fill="#ffe966" d="M62.5 441.52c0-9.89-1.982-7.907 7.908-7.907l19.556-10h19.555a17.908 17.908 0 0 1 17.908 17.908 17.908 17.908 0 0 1-17.908 17.908H89.964l-19.556-10c-9.89 0-7.908 1.982-7.908-7.908Z"></path><path fill="#66c1ff" d="M70.408 423.613A17.908 17.908 0 0 0 52.5 441.52a17.908 17.908 0 0 0 17.908 17.908h19.556v-35.816Z"></path><path fill="#fff099" d="M72.5 279.96c0-9.891-1.982-7.909 7.908-7.909l19.556-10h19.555a17.908 17.908 0 0 1 17.908 17.908 17.908 17.908 0 0 1-17.908 17.908H99.964l-19.556-10c-9.89 0-7.908 1.983-7.908-7.908Z"></path><path fill="#ffe966" d="M62.5 279.96c0-9.891-1.982-7.909 7.908-7.909l19.556-10h19.555a17.908 17.908 0 0 1 17.908 17.908 17.908 17.908 0 0 1-17.908 17.908H89.964l-19.556-10c-9.89 0-7.908 1.983-7.908-7.908Z"></path><path fill="#66c1ff" d="M70.408 262.051A17.908 17.908 0 0 0 52.5 279.96a17.908 17.908 0 0 0 17.908 17.908h19.556v-35.816Z"></path><path fill="#fff099" d="M72.5 199.143c0-9.89-1.982-7.908 7.908-7.908l19.556-10h19.555a17.908 17.908 0 0 1 17.908 17.908 17.908 17.908 0 0 1-17.908 17.908H99.964l-19.556-10c-9.89 0-7.908 1.982-7.908-7.908Z"></path><path fill="#ffe966" d="M62.5 199.143c0-9.89-1.982-7.908 7.908-7.908l19.556-10h19.555a17.908 17.908 0 0 1 17.908 17.908 17.908 17.908 0 0 1-17.908 17.908H89.964l-19.556-10c-9.89 0-7.908 1.982-7.908-7.908Z"></path><path fill="#66c1ff" d="M70.408 181.235A17.908 17.908 0 0 0 52.5 199.143a17.908 17.908 0 0 0 17.908 17.908h19.556v-35.816Z"></path><path fill="#dedede" d="M287.5 166.23V474.5a29.998 29.998 0 0 1-30 30h-8a29.998 29.998 0 0 1-30-30V136.23h38a30.004 30.004 0 0 1 30 30Z"></path><path fill="#ffe236" d="M224.592 181.235H219.5v35.816h5.092a17.908 17.908 0 0 0 17.908-17.908 17.908 17.908 0 0 0-17.908-17.908Z"></path><path fill="#ffe236" d="M224.592 181.235H219.5v35.816h5.092a17.908 17.908 0 0 0 17.908-17.908 17.908 17.908 0 0 0-17.908-17.908zm0 80.816H219.5v35.816h5.092A17.908 17.908 0 0 0 242.5 279.96a17.908 17.908 0 0 0-17.908-17.908zm0 80.816H219.5v35.817h5.092a17.908 17.908 0 0 0 17.908-17.908 17.908 17.908 0 0 0-17.908-17.909zm0 80.746H219.5v35.816h5.092a17.908 17.908 0 0 0 17.908-17.908 17.908 17.908 0 0 0-17.908-17.908z"></path><rect width="265" height="398.265" x="239.5" y="106.235" fill="#f2f2f2" rx="30"></rect><circle cx="437" cy="183.735" r="32.5" fill="#dedede"></circle><circle cx="327" cy="183.735" r="32.5" fill="#dedede"></circle><circle cx="427" cy="183.735" r="32.5" fill="#f66"></circle><circle cx="317" cy="183.735" r="32.5" fill="#f66"></circle><circle cx="437" cy="427" r="32.5" fill="#dedede"></circle><circle cx="327" cy="427" r="32.5" fill="#dedede"></circle><circle cx="427" cy="427" r="32.5" fill="#f66"></circle><circle cx="317" cy="427" r="32.5" fill="#f66"></circle><circle cx="327" cy="305.367" r="32.5" fill="#dedede"></circle><circle cx="437" cy="305.367" r="32.5" fill="#dedede"></circle><circle cx="317" cy="305.367" r="32.5" fill="#f66"></circle><path fill="#ff3636" d="m444.057 156.071-44.72 44.72a32.661 32.661 0 0 0 10.606 10.607l44.721-44.72a32.663 32.663 0 0 0-10.607-10.607Z"></path><circle cx="427" cy="305.367" r="32.5" fill="#f66"></circle><path fill="#ff3636" d="m444.057 277.704-44.72 44.72a32.66 32.66 0 0 0 10.607 10.607l44.72-44.72a32.663 32.663 0 0 0-10.607-10.607zm-110 0-44.72 44.72a32.66 32.66 0 0 0 10.607 10.607l44.72-44.72a32.663 32.663 0 0 0-10.607-10.607zm0-121.633-44.72 44.72a32.661 32.661 0 0 0 10.606 10.607l44.721-44.72a32.663 32.663 0 0 0-10.607-10.607zm110 243.265-44.72 44.72a32.66 32.66 0 0 0 10.607 10.608l44.72-44.72a32.66 32.66 0 0 0-10.607-10.608zm-110 0-44.72 44.72a32.66 32.66 0 0 0 10.607 10.608l44.72-44.72a32.66 32.66 0 0 0-10.607-10.608z"></path></svg>