<svg xmlns="http://www.w3.org/2000/svg" viewBox="0 0 512 512" id="medicine"><path fill="#f7991d" d="M435.5 106.055V37.5h-89v68.555a30.554 30.554 0 0 1-26.171 30.238 50 50 0 0 0-42.829 49.483V454.5a50 50 0 0 0 50 50h127c26.789.845 49.095-21.459 50-50V185.776a50 50 0 0 0-42.829-49.483 30.554 30.554 0 0 1-26.171-30.238Z"></path><path fill="#e37626" d="M307.5 454.5V185.776a50 50 0 0 1 42.829-49.483 30.554 30.554 0 0 0 26.171-30.238V37.5h-30v68.555a30.554 30.554 0 0 1-26.171 30.238 50 50 0 0 0-42.829 49.483V454.5a50 50 0 0 0 50 50h30a50 50 0 0 1-50-50zm147 50c.92.029 1.834.025 2.743 0z"></path><path fill="#8b8891" d="M451.67 24.07v47h-125v-47a15 15 0 0 1 15-15h95a14.993 14.993 0 0 1 15 15Z"></path><path fill="#58565d" d="M371.67 9.07h-30a15 15 0 0 0-15 15v47h30v-47a15 15 0 0 1 15-15Z"></path><path fill="#8b8891" d="M277.5 220.5h227v181h-227z"></path><path fill="#58565d" d="M277.5 220.5h30v181h-30zM398.5 9.07V59.5a7.5 7.5 0 0 1-15 0V9.07zm32.5 0V59.5a7.5 7.5 0 0 1-15 0V9.07z"></path><rect width="276" height="435" x="4" y="69.5" fill="#e0e0e2" rx="40"></rect><path fill="#afaeb3" d="M34 464.5v-355a40 40 0 0 1 40-40H44a40 40 0 0 0-40 40v355a40 40 0 0 0 40 40h30a40 40 0 0 1-40-40Z"></path><path fill="#afaeb3" d="M116.24 155.76a29.978 29.978 0 1 1-30-30 29.725 29.725 0 0 1 30 30zm117.185 0a29.978 29.978 0 1 1-30-30 29.725 29.725 0 0 1 30 30z"></path><path fill="#74bf4b" d="M116.24 145.76a29.978 29.978 0 1 1-30-30 29.725 29.725 0 0 1 30 30Z"></path><path fill="#13ad4c" d="M112.07 160.99a29.582 29.582 0 0 1-10.6 10.6L60.4 130.53a29.69 29.69 0 0 1 10.61-10.6Z"></path><path fill="#afaeb3" d="M116.24 249.76a29.978 29.978 0 1 1-30-30 29.725 29.725 0 0 1 30 30zm117.76 0a29.978 29.978 0 1 1-30-30 29.725 29.725 0 0 1 30 30z"></path><path fill="#74bf4b" d="M116.24 239.76a29.978 29.978 0 1 1-30-30 29.725 29.725 0 0 1 30 30Z"></path><path fill="#13ad4c" d="M112.07 254.99a29.582 29.582 0 0 1-10.6 10.6L60.4 224.53a29.69 29.69 0 0 1 10.61-10.6Z"></path><path fill="#afaeb3" d="M117 343a29.977 29.977 0 1 1-30-30 29.743 29.743 0 0 1 30 30Z"></path><path fill="#74bf4b" d="M117 333a29.977 29.977 0 1 1-30-30 29.743 29.743 0 0 1 30 30Z"></path><path fill="#13ad4c" d="M112.25 349.17a29.855 29.855 0 0 1-10.98 10.22L60.6 318.73a29.963 29.963 0 0 1 10.23-10.98Z"></path><path fill="#afaeb3" d="M117 437a29.977 29.977 0 1 1-30-30 29.743 29.743 0 0 1 30 30Z"></path><path fill="#74bf4b" d="M117 427a29.977 29.977 0 1 1-30-30 29.743 29.743 0 0 1 30 30Z"></path><path fill="#13ad4c" d="M112.25 443.17a29.855 29.855 0 0 1-10.98 10.22L60.6 412.73a29.963 29.963 0 0 1 10.23-10.98Z"></path><path fill="#74bf4b" d="M233.24 145.76a29.978 29.978 0 1 1-30-30 29.725 29.725 0 0 1 30 30Z"></path><path fill="#13ad4c" d="M229.07 160.99a29.582 29.582 0 0 1-10.6 10.6l-41.07-41.06a29.69 29.69 0 0 1 10.61-10.6Z"></path><path fill="#74bf4b" d="M234 239a29.977 29.977 0 1 1-30-30 29.743 29.743 0 0 1 30 30Z"></path><path fill="#13ad4c" d="M229.25 255.17a29.855 29.855 0 0 1-10.98 10.22l-40.67-40.66a29.963 29.963 0 0 1 10.23-10.98Z"></path><path fill="#afaeb3" d="M233.24 343.76a29.978 29.978 0 1 1-30-30 29.725 29.725 0 0 1 30 30Z"></path><path fill="#74bf4b" d="M233.24 333.76a29.978 29.978 0 1 1-30-30 29.725 29.725 0 0 1 30 30Z"></path><path fill="#13ad4c" d="M229.07 348.99a29.582 29.582 0 0 1-10.6 10.6l-41.07-41.06a29.69 29.69 0 0 1 10.61-10.6Z"></path><path fill="#afaeb3" d="M233.24 437.76a29.978 29.978 0 1 1-30-30 29.725 29.725 0 0 1 30 30Z"></path><path fill="#74bf4b" d="M233.24 427.76a29.978 29.978 0 1 1-30-30 29.725 29.725 0 0 1 30 30Z"></path><path fill="#13ad4c" d="M229.07 442.99a29.582 29.582 0 0 1-10.6 10.6l-41.07-41.06a29.69 29.69 0 0 1 10.61-10.6Z"></path><path fill="#58565d" d="M336.5 59.5h109a15 15 0 0 1 15 15 15 15 0 0 1-15 15h-109a15 15 0 0 1-15-15 15 15 0 0 1 15-15Z"></path><path fill="#3c3b41" d="M351.5 74.5a15 15 0 0 1 15-15h-30a15 15 0 0 0 0 30h30a15 15 0 0 1-15-15Z"></path></svg>