<svg xmlns="http://www.w3.org/2000/svg" width="36" height="36" id="offer"><path fill="#df1e49" d="M3.55 14.95h5.874v7.37H3.55l2.106-3.685zm28.9 0h-5.874v7.37h5.874l-2.106-3.685z"></path><path fill="#ff1e55" d="M7.869 13.68v7.372H28.13V13.68H11.87z"></path><path style="line-height:125%;-inkscape-font-specification:'Bebas Neue Bold'" fill="#fff" d="M12.027 13.465c-.573 0-.886.34-.886.935v1.932c0 .595.313.934.886.934.574 0 .887-.34.887-.934V14.4c0-.594-.313-.935-.887-.935zm1.266.043v3.715h.584v-1.534h.754v-.53h-.754v-1.12h.96v-.531h-1.544zm1.824 0v3.715h.584v-1.534h.754v-.53h-.754v-1.12h.961v-.531h-1.545zm1.824 0v3.715h1.594v-.53h-1.01v-1.088h.803v-.53h-.803v-1.036h1.01v-.531h-1.594zm1.95 0v3.715h.584V15.71h.203c.265 0 .38.128.38.473v.584c0 .302.021.36.053.455h.596c-.058-.138-.064-.271-.064-.452V16.2c0-.387-.095-.669-.387-.79.26-.123.38-.373.38-.755v-.29c0-.574-.26-.856-.865-.856h-.88zm-6.864.488c.186 0 .303.102.303.367v2.006c0 .266-.117.365-.303.365-.185 0-.302-.1-.302-.365v-2.006c0-.265.117-.367.302-.367zm7.448.043h.28c.208 0 .298.117.298.383v.365c0 .297-.132.393-.35.393h-.228v-1.14z" font-family="Bebas Neue" font-weight="700" letter-spacing="0" transform="translate(2 2)" word-spacing="0"></path><path fill="#cb1e49" fill-rule="evenodd" d="M9.988 16.192a.727.727 0 0 0-.515 1.244l.054.054 1.037 1.05 1.036-1.05.055-.054a.727.727 0 0 0 0-1.03.727.727 0 0 0-1.03 0l-.061.061-.061-.06a.726.726 0 0 0-.515-.215zm14.72 0a.727.727 0 0 0-.515 1.244l.054.054 1.036 1.05 1.037-1.05.054-.054a.727.727 0 0 0 0-1.03.727.727 0 0 0-1.03 0l-.061.061-.06-.06a.726.726 0 0 0-.516-.215z"></path><path style="line-height:normal;text-indent:0;text-align:start;text-decoration-line:none;text-decoration-style:solid;text-decoration-color:#000;text-transform:none;block-progression:tb;isolation:auto;mix-blend-mode:normal" fill="#e9eded" d="M5.87 14.68a1 1 0 0 0-1 1v.27H1.55a1 1 0 0 0-.868 1.495l1.822 3.19-1.822 3.19a1 1 0 0 0 .869 1.495h5.873a1 1 0 0 0 1-1v-.267H23.576v.267a1 1 0 0 0 1 1h5.873a1 1 0 0 0 .87-1.496l-1.823-3.19 1.822-3.189a1 1 0 0 0-.869-1.496h-3.318v-.27a1 1 0 0 0-1-1H5.869zm0 1H26.13v1.27h4.32l-2.106 3.685 2.105 3.685h-5.873v-1.267H7.424v1.267H1.55l2.105-3.685-2.105-3.686h4.318v-1.27z" color="#000" font-family="sans-serif" font-weight="400" overflow="visible" transform="translate(2 -2)"></path></svg>